# xmcd CD database file
#
# Track frame offsets:
#	150
#	17990
#	32600
#	44982
#	63257
#	77082
#	93545
#	111787
#	126597
#	138375
#	156772
#	170045
#	185937
#	197072
#	213807
#	229457
#	249262
#	264774
#	282309
#	293484
#	309957
#	324942
#
# Disc length: 4531 seconds
#
# Revision: 0
# Processed by: cddbd v1.5.2PL0 Copyright (c) Steve Scherf et al.
# Submitted via: CDex 1.51
#
DISCID=4311b116
DTITLE=Sarah Vaughan - Sings George Gershwin - CD 1
DYEAR=1957
DGENRE=Jazz
TTITLE0=Isn't It A Pity
TTITLE1=Of Thee I Sing
TTITLE2=I'll Build A Stairway To Paradise
TTITLE3=Someone To Watch Over Me
TTITLE4=Bidin' My Time
TTITLE5=The Man I Love
TTITLE6=How Long Has This Been Going On
TTITLE7=My One And Only (What Am I Gonna Do)
TTITLE8=Lorelei
TTITLE9=I've Got A Crush On You
TTITLE10=Summertime
TTITLE11=Aren't You Kind Of Glad We Did
TTITLE12=They All Laughed
TTITLE13=Looking For A Boy
TTITLE14=He Loves And She Loves
TTITLE15=My Man's Gone Now
TTITLE16=I Won't Say I Will
TTITLE17=A Foggy Day
TTITLE18=Let's Call the Whole Thing Off
TTITLE19=Things Are Looking Up
TTITLE20=Do It Again
TTITLE21=Love Walked In
EXTD=YEAR: 1957
EXTT0=
EXTT1=
EXTT2=
EXTT3=
EXTT4=
EXTT5=
EXTT6=
EXTT7=
EXTT8=
EXTT9=
EXTT10=
EXTT11=
EXTT12=
EXTT13=
EXTT14=
EXTT15=
EXTT16=
EXTT17=
EXTT18=
EXTT19=
EXTT20=
EXTT21=
PLAYORDER=
